<svg version="1.1" id="Layer_1" xmlns="http://www.w3.org/2000/svg" xmlns:xlink="http://www.w3.org/1999/xlink" x="0px" y="0px"
	 width="100%" viewBox="0 0 500 500" enable-background="new 0 0 500 500" xml:space="preserve">
	 
<path fill="#565656" opacity="1.000000" stroke="none" 
	d="
M299.222351,390.599609 
	C272.581085,393.005981 246.343521,392.506897 220.723862,385.152588 
	C179.479858,373.313141 147.134521,350.100586 129.985855,309.659058 
	C104.043564,248.479660 122.725189,174.737045 191.149948,139.674484 
	C224.393265,122.639763 259.796753,117.342026 296.680481,119.675835 
	C312.997650,120.708290 329.129181,122.823708 344.713745,128.026962 
	C359.646149,133.012482 359.803314,133.526749 361.063232,149.204147 
	C362.262878,164.131302 363.910858,179.022430 365.363739,193.929214 
	C365.548126,195.821182 366.660767,198.110504 363.754547,198.873917 
	C360.552185,199.715088 360.433716,196.961075 359.680145,195.053482 
	C350.423798,171.620392 336.068726,151.912506 314.260956,139.099655 
	C272.821198,114.752319 215.900574,127.819885 187.617798,167.166428 
	C172.902267,187.638412 165.687500,210.685287 164.142380,235.583572 
	C162.231186,266.380432 166.512299,296.148773 181.721039,323.447906 
	C204.940643,365.126221 240.491547,385.975159 288.448669,385.066284 
	C290.612488,385.025299 292.775146,384.920349 295.397736,384.820312 
	C299.327362,385.117676 299.936096,387.340729 299.222351,390.599609 
z"/>
<path fill="#A7A7A7" opacity="1.000000" stroke="none" 
	d="
M299.248444,391.163269 
	C299.174622,388.564606 298.307709,386.653931 296.180817,384.967285 
	C296.405579,382.554810 294.965118,381.020813 293.914001,379.354004 
	C285.171234,365.490051 272.632782,355.691833 259.095184,347.003967 
	C241.737427,335.864502 223.950287,325.373657 207.618484,312.695160 
	C180.832458,291.900909 174.330460,253.361221 193.353165,226.033203 
	C203.419327,211.572205 218.096405,203.585098 234.744049,199.064362 
	C261.269287,191.861282 287.089417,195.155930 312.434875,204.748154 
	C317.052765,206.495850 319.426270,209.835754 319.683167,214.536911 
	C320.527069,229.981781 321.202545,245.435898 321.929260,260.887085 
	C322.019775,262.811584 321.882050,264.728149 319.385315,264.978210 
	C316.777649,265.239410 316.507080,263.067566 316.155212,261.350830 
	C314.846680,254.966141 312.899719,248.784348 310.145752,242.898163 
	C304.322937,230.453033 297.601532,218.644714 286.017426,210.456680 
	C269.848236,199.027740 241.722794,198.983170 226.286987,210.852936 
	C215.105499,219.451248 210.717484,231.700684 210.051346,245.333710 
	C208.896210,268.973755 221.531921,285.182587 239.464127,298.235229 
	C255.355911,309.802673 272.636108,319.230804 289.093994,329.937195 
	C304.065033,339.676392 317.416229,350.881927 326.594971,366.822327 
	C330.724335,372.845428 332.287140,379.406769 332.233337,386.704956 
	C332.146179,396.854004 332.496307,406.614288 329.523651,416.228851 
	C323.320953,436.290619 310.469971,450.663788 291.418640,458.592102 
	C256.619385,473.074036 222.032562,471.172791 188.085220,454.942688 
	C182.960815,452.492737 180.594330,448.676849 180.189774,443.279266 
	C179.133789,429.190216 178.076843,415.101196 177.015030,401.012604 
	C176.690247,396.703339 176.322464,392.397156 176.027557,388.085938 
	C175.912415,386.402466 175.814423,384.537964 178.044113,384.134003 
	C180.376892,383.711304 180.658478,385.631836 181.138550,387.218506 
	C185.053680,400.158295 189.927582,412.698395 197.095566,424.220581 
	C206.995956,440.134949 218.872513,453.752991 238.243332,458.198120 
	C253.427460,461.682465 268.196106,461.132477 282.435425,453.945343 
	C294.913208,447.647400 301.171234,437.085754 302.690277,423.836914 
	C303.939758,412.939453 303.934906,401.877899 299.248444,391.163269 
z"/>
<path fill="#565656" opacity="1.000000" stroke="none" 
	d="
M332.415771,387.007141 
	C331.015106,380.425018 328.849426,374.109985 326.947357,367.321716 
	C332.917877,351.612701 332.299988,335.626709 331.589447,319.662994 
	C331.383240,315.030090 330.741760,310.392883 329.965546,305.814301 
	C328.591187,297.707397 323.579742,292.888611 315.659912,291.100769 
	C308.164124,289.408630 300.529388,289.141296 292.872528,288.899109 
	C290.237457,288.815735 285.674622,290.652557 285.962128,285.214905 
	C286.227173,280.202637 290.383270,282.104431 292.899872,282.283295 
	C317.648193,284.042358 342.417175,284.466400 367.209381,283.817932 
	C373.357574,283.657135 379.503571,283.334473 385.643280,282.964630 
	C388.092529,282.817108 389.639313,283.680267 389.602600,286.176636 
	C389.566620,288.624512 387.697052,288.747101 385.700500,288.886444 
	C375.864532,289.572693 372.837769,291.903351 371.949890,301.681610 
	C369.903564,324.218201 369.074005,346.806152 372.695679,369.293976 
	C374.139648,378.259918 373.700836,379.194733 364.662476,380.963654 
	C354.065918,383.037567 343.442200,384.972473 332.415771,387.007141 
z"/>
</svg>